<svg xmlns="http://www.w3.org/2000/svg" width="360" height="400" viewBox="0 0 360 400" font-family="-apple-system,Segoe UI,Roboto,sans-serif">
<text x="180.0" y="20" text-anchor="middle" font-size="14" font-weight="600" fill="#111">GLM-5.2 能力雷达 (5 维)</text>
<polygon points="180.0,147.6 210.8,170.0 199.0,206.2 161.0,206.2 149.2,170.0" fill="none" stroke="#e5e7eb" stroke-width="1"/>
<text x="184.0" y="147.6" font-size="9" fill="#9ca3af">0.25</text>
<polygon points="180.0,115.2 241.6,160.0 218.1,232.4 141.9,232.4 118.4,160.0" fill="none" stroke="#e5e7eb" stroke-width="1"/>
<text x="184.0" y="115.2" font-size="9" fill="#9ca3af">0.50</text>
<polygon points="180.0,82.8 272.4,150.0 237.1,258.6 122.9,258.6 87.6,150.0" fill="none" stroke="#e5e7eb" stroke-width="1"/>
<text x="184.0" y="82.8" font-size="9" fill="#9ca3af">0.75</text>
<polygon points="180.0,50.4 303.3,140.0 256.2,284.8 103.8,284.8 56.7,140.0" fill="none" stroke="#e5e7eb" stroke-width="1"/>
<text x="184.0" y="50.4" font-size="9" fill="#9ca3af">1.00</text>
<line x1="180.0" y1="180.0" x2="180.0" y2="50.4" stroke="#d1d5db"/>
<text x="180.0" y="34.8" text-anchor="middle" font-size="11" fill="#374151">HumanEval</text>
<line x1="180.0" y1="180.0" x2="303.3" y2="140.0" stroke="#d1d5db"/>
<text x="318.0" y="135.1" text-anchor="start" font-size="11" fill="#374151">MBPP</text>
<line x1="180.0" y1="180.0" x2="256.2" y2="284.8" stroke="#d1d5db"/>
<text x="265.3" y="297.4" text-anchor="start" font-size="11" fill="#374151">BFCL</text>
<line x1="180.0" y1="180.0" x2="103.8" y2="284.8" stroke="#d1d5db"/>
<text x="94.7" y="297.4" text-anchor="end" font-size="11" fill="#374151">Needle</text>
<line x1="180.0" y1="180.0" x2="56.7" y2="140.0" stroke="#d1d5db"/>
<text x="42.0" y="135.1" text-anchor="end" font-size="11" fill="#374151">IFEval</text>
<polygon points="180.0,66.0 231.8,163.2 248.6,274.4 103.8,284.8 69.1,144.0 180.0,66.0" fill="#2563eb" fill-opacity="0.18" stroke="#2563eb" stroke-width="2"/>
<circle cx="180.0" cy="66.0" r="3" fill="#2563eb"/>
<circle cx="231.8" cy="163.2" r="3" fill="#2563eb"/>
<circle cx="248.6" cy="274.4" r="3" fill="#2563eb"/>
<circle cx="103.8" cy="284.8" r="3" fill="#2563eb"/>
<circle cx="69.1" cy="144.0" r="3" fill="#2563eb"/>
<rect x="10" y="380" width="12" height="12" fill="#2563eb"/>
<text x="26" y="390" font-size="11" fill="#374151">GLM-5.2</text>
</svg>