<svg xmlns="http://www.w3.org/2000/svg" width="900" height="360" viewBox="0 0 900 360" font-family="-apple-system,Segoe UI,Roboto,sans-serif">
<text x="450.0" y="20" text-anchor="middle" font-size="14" font-weight="600" fill="#111">8 任务 × 3 轮得分对比</text>
<line x1="60" y1="300.0" x2="880" y2="300.0" stroke="#e5e7eb"/>
<text x="54" y="303.0" text-anchor="end" font-size="10" fill="#9ca3af">0.00</text>
<line x1="60" y1="235.0" x2="880" y2="235.0" stroke="#e5e7eb"/>
<text x="54" y="238.0" text-anchor="end" font-size="10" fill="#9ca3af">0.25</text>
<line x1="60" y1="170.0" x2="880" y2="170.0" stroke="#e5e7eb"/>
<text x="54" y="173.0" text-anchor="end" font-size="10" fill="#9ca3af">0.50</text>
<line x1="60" y1="105.0" x2="880" y2="105.0" stroke="#e5e7eb"/>
<text x="54" y="108.0" text-anchor="end" font-size="10" fill="#9ca3af">0.75</text>
<line x1="60" y1="40.0" x2="880" y2="40.0" stroke="#e5e7eb"/>
<text x="54" y="43.0" text-anchor="end" font-size="10" fill="#9ca3af">1.00</text>
<rect x="71.3" y="161.3" width="24.7" height="138.7" fill="#2563eb"/>
<text x="84.6" y="158.3" text-anchor="middle" font-size="9" fill="#2563eb">53%</text>
<rect x="97.9" y="187.3" width="24.7" height="112.7" fill="#dc2626"/>
<text x="111.3" y="184.3" text-anchor="middle" font-size="9" fill="#dc2626">43%</text>
<rect x="124.6" y="178.7" width="24.7" height="121.3" fill="#16a34a"/>
<text x="137.9" y="175.7" text-anchor="middle" font-size="9" fill="#16a34a">47%</text>
<text x="111.2" y="318.0" text-anchor="middle" font-size="10" fill="#374151">GSM8K</text>
<rect x="173.8" y="83.3" width="24.7" height="216.7" fill="#2563eb"/>
<text x="187.1" y="80.3" text-anchor="middle" font-size="9" fill="#2563eb">83%</text>
<rect x="200.4" y="74.7" width="24.7" height="225.3" fill="#dc2626"/>
<text x="213.8" y="71.7" text-anchor="middle" font-size="9" fill="#dc2626">87%</text>
<rect x="227.1" y="66.0" width="24.7" height="234.0" fill="#16a34a"/>
<text x="240.4" y="63.0" text-anchor="middle" font-size="9" fill="#16a34a">90%</text>
<text x="213.8" y="318.0" text-anchor="middle" font-size="10" fill="#374151">HumanEval</text>
<rect x="276.3" y="196.0" width="24.7" height="104.0" fill="#2563eb"/>
<text x="289.6" y="193.0" text-anchor="middle" font-size="9" fill="#2563eb">40%</text>
<rect x="302.9" y="187.3" width="24.7" height="112.7" fill="#dc2626"/>
<text x="316.2" y="184.3" text-anchor="middle" font-size="9" fill="#dc2626">43%</text>
<rect x="329.6" y="196.0" width="24.7" height="104.0" fill="#16a34a"/>
<text x="342.9" y="193.0" text-anchor="middle" font-size="9" fill="#16a34a">40%</text>
<text x="316.2" y="318.0" text-anchor="middle" font-size="10" fill="#374151">MBPP</text>
<rect x="378.8" y="74.7" width="24.7" height="225.3" fill="#2563eb"/>
<text x="392.1" y="71.7" text-anchor="middle" font-size="9" fill="#2563eb">87%</text>
<rect x="405.4" y="74.7" width="24.7" height="225.3" fill="#dc2626"/>
<text x="418.7" y="71.7" text-anchor="middle" font-size="9" fill="#dc2626">87%</text>
<rect x="432.1" y="74.7" width="24.7" height="225.3" fill="#16a34a"/>
<text x="445.4" y="71.7" text-anchor="middle" font-size="9" fill="#16a34a">87%</text>
<text x="418.8" y="318.0" text-anchor="middle" font-size="10" fill="#374151">BFCL</text>
<rect x="481.3" y="40.0" width="24.7" height="260.0" fill="#2563eb"/>
<text x="494.6" y="37.0" text-anchor="middle" font-size="9" fill="#2563eb">100%</text>
<rect x="507.9" y="40.0" width="24.7" height="260.0" fill="#dc2626"/>
<text x="521.2" y="37.0" text-anchor="middle" font-size="9" fill="#dc2626">100%</text>
<rect x="534.6" y="40.0" width="24.7" height="260.0" fill="#16a34a"/>
<text x="547.9" y="37.0" text-anchor="middle" font-size="9" fill="#16a34a">100%</text>
<text x="521.2" y="318.0" text-anchor="middle" font-size="10" fill="#374151">Needle</text>
<rect x="583.8" y="92.0" width="24.7" height="208.0" fill="#2563eb"/>
<text x="597.1" y="89.0" text-anchor="middle" font-size="9" fill="#2563eb">80%</text>
<rect x="610.4" y="92.0" width="24.7" height="208.0" fill="#dc2626"/>
<text x="623.8" y="89.0" text-anchor="middle" font-size="9" fill="#dc2626">80%</text>
<rect x="637.1" y="92.0" width="24.7" height="208.0" fill="#16a34a"/>
<text x="650.4" y="89.0" text-anchor="middle" font-size="9" fill="#16a34a">80%</text>
<text x="623.8" y="318.0" text-anchor="middle" font-size="10" fill="#374151">IFEval</text>
<rect x="686.3" y="196.0" width="24.7" height="104.0" fill="#2563eb"/>
<text x="699.6" y="193.0" text-anchor="middle" font-size="9" fill="#2563eb">40%</text>
<rect x="712.9" y="209.0" width="24.7" height="91.0" fill="#dc2626"/>
<text x="726.2" y="206.0" text-anchor="middle" font-size="9" fill="#dc2626">35%</text>
<rect x="739.6" y="248.0" width="24.7" height="52.0" fill="#16a34a"/>
<text x="752.9" y="245.0" text-anchor="middle" font-size="9" fill="#16a34a">20%</text>
<text x="726.2" y="318.0" text-anchor="middle" font-size="10" fill="#374151">MGSM</text>
<rect x="788.8" y="40.0" width="24.7" height="260.0" fill="#2563eb"/>
<text x="802.1" y="37.0" text-anchor="middle" font-size="9" fill="#2563eb">100%</text>
<rect x="815.4" y="40.0" width="24.7" height="260.0" fill="#dc2626"/>
<text x="828.8" y="37.0" text-anchor="middle" font-size="9" fill="#dc2626">100%</text>
<rect x="842.1" y="40.0" width="24.7" height="260.0" fill="#16a34a"/>
<text x="855.4" y="37.0" text-anchor="middle" font-size="9" fill="#16a34a">100%</text>
<text x="828.8" y="318.0" text-anchor="middle" font-size="10" fill="#374151">BBH</text>
<rect x="60" y="336" width="12" height="12" fill="#2563eb"/>
<text x="76" y="346" font-size="11" fill="#374151">seed=1234</text>
<rect x="163" y="336" width="12" height="12" fill="#dc2626"/>
<text x="179" y="346" font-size="11" fill="#374151">seed=5678</text>
<rect x="266" y="336" width="12" height="12" fill="#16a34a"/>
<text x="282" y="346" font-size="11" fill="#374151">seed=9012</text>
</svg>