<svg xmlns="http://www.w3.org/2000/svg" width="248" height="248" viewBox="0 0 248 248" font-family="-apple-system,Segoe UI,Roboto,sans-serif">
<text x="124.0" y="22" text-anchor="middle" font-size="14" font-weight="600" fill="#111">Needle 压力测试：长度 × 深度 通过率</text>
<text x="98.0" y="42" text-anchor="middle" font-size="10" fill="#374151">64k</text>
<text x="154.0" y="42" text-anchor="middle" font-size="10" fill="#374151">128k</text>
<text x="210.0" y="42" text-anchor="middle" font-size="10" fill="#374151">200k</text>
<text x="64" y="82.0" text-anchor="end" font-size="10" fill="#374151">10%</text>
<text x="64" y="138.0" text-anchor="end" font-size="10" fill="#374151">50%</text>
<text x="64" y="194.0" text-anchor="end" font-size="10" fill="#374151">90%</text>
<rect x="70" y="50" width="54" height="54" fill="rgb(255,128,128)" stroke="#fff"/>
<text x="97.0" y="82.0" text-anchor="middle" font-size="11" fill="#111">100%</text>
<rect x="70" y="106" width="54" height="54" fill="rgb(255,128,128)" stroke="#fff"/>
<text x="97.0" y="138.0" text-anchor="middle" font-size="11" fill="#111">100%</text>
<rect x="70" y="162" width="54" height="54" fill="rgb(255,128,128)" stroke="#fff"/>
<text x="97.0" y="194.0" text-anchor="middle" font-size="11" fill="#111">100%</text>
<rect x="126" y="50" width="54" height="54" fill="rgb(255,128,128)" stroke="#fff"/>
<text x="153.0" y="82.0" text-anchor="middle" font-size="11" fill="#111">100%</text>
<rect x="126" y="106" width="54" height="54" fill="rgb(255,128,128)" stroke="#fff"/>
<text x="153.0" y="138.0" text-anchor="middle" font-size="11" fill="#111">100%</text>
<rect x="126" y="162" width="54" height="54" fill="rgb(255,128,128)" stroke="#fff"/>
<text x="153.0" y="194.0" text-anchor="middle" font-size="11" fill="#111">100%</text>
<rect x="182" y="50" width="54" height="54" fill="rgb(255,255,255)" stroke="#fff"/>
<text x="209.0" y="82.0" text-anchor="middle" font-size="11" fill="#111">0%</text>
<rect x="182" y="106" width="54" height="54" fill="rgb(255,255,255)" stroke="#fff"/>
<text x="209.0" y="138.0" text-anchor="middle" font-size="11" fill="#111">0%</text>
<rect x="182" y="162" width="54" height="54" fill="rgb(255,255,255)" stroke="#fff"/>
<text x="209.0" y="194.0" text-anchor="middle" font-size="11" fill="#111">0%</text>
</svg>