<svg xmlns="http://www.w3.org/2000/svg" width="700" height="320" viewBox="0 0 700 320" font-family="-apple-system,Segoe UI,Roboto,sans-serif">
<text x="350.0" y="20" text-anchor="middle" font-size="14" font-weight="600" fill="#111">温度对比：temp=0 vs temp=0.2</text>
<line x1="60" y1="260.0" x2="680" y2="260.0" stroke="#e5e7eb"/>
<text x="54" y="263.0" text-anchor="end" font-size="10" fill="#9ca3af">0.00</text>
<line x1="60" y1="205.0" x2="680" y2="205.0" stroke="#e5e7eb"/>
<text x="54" y="208.0" text-anchor="end" font-size="10" fill="#9ca3af">0.25</text>
<line x1="60" y1="150.0" x2="680" y2="150.0" stroke="#e5e7eb"/>
<text x="54" y="153.0" text-anchor="end" font-size="10" fill="#9ca3af">0.50</text>
<line x1="60" y1="95.0" x2="680" y2="95.0" stroke="#e5e7eb"/>
<text x="54" y="98.0" text-anchor="end" font-size="10" fill="#9ca3af">0.75</text>
<line x1="60" y1="40.0" x2="680" y2="40.0" stroke="#e5e7eb"/>
<text x="54" y="43.0" text-anchor="end" font-size="10" fill="#9ca3af">1.00</text>
<rect x="94.1" y="76.2" width="118.9" height="183.8" fill="#2563eb"/>
<text x="154.6" y="73.2" text-anchor="middle" font-size="9" fill="#2563eb">83.5%</text>
<rect x="215.0" y="81.2" width="118.9" height="178.8" fill="#dc2626"/>
<text x="275.4" y="78.2" text-anchor="middle" font-size="9" fill="#dc2626">81.2%</text>
<text x="215.0" y="278.0" text-anchor="middle" font-size="10" fill="#374151">HumanEval</text>
<rect x="404.1" y="158.8" width="118.9" height="101.2" fill="#2563eb"/>
<text x="464.6" y="155.8" text-anchor="middle" font-size="9" fill="#2563eb">46.0%</text>
<rect x="525.0" y="153.7" width="118.9" height="106.3" fill="#dc2626"/>
<text x="585.5" y="150.7" text-anchor="middle" font-size="9" fill="#dc2626">48.3%</text>
<text x="525.0" y="278.0" text-anchor="middle" font-size="10" fill="#374151">MBPP</text>
<rect x="60" y="296" width="12" height="12" fill="#2563eb"/>
<text x="76" y="306" font-size="11" fill="#374151">temp=0</text>
<rect x="142" y="296" width="12" height="12" fill="#dc2626"/>
<text x="158" y="306" font-size="11" fill="#374151">temp=0.2</text>
</svg>